<?xml version="1.0" standalone="no"?>
<!DOCTYPE svg PUBLIC "-//W3C//DTD SVG 20010904//EN"
 "http://www.w3.org/TR/2001/REC-SVG-20010904/DTD/svg10.dtd">
<svg version="1.0" xmlns="http://www.w3.org/2000/svg"
 width="1024.000000pt" height="1024.000000pt" viewBox="0 0 1024.000000 1024.000000"
 preserveAspectRatio="xMidYMid meet">
<metadata>
Created by potrace 1.14, written by Peter Selinger 2001-2017
</metadata>
<g transform="translate(0.000000,1024.000000) scale(0.100000,-0.100000)"
fill="#000000" stroke="none">
<path d="M0 5120 l0 -5120 5120 0 5120 0 0 5120 0 5120 -5120 0 -5120 0 0
-5120z m2717 1648 c-3 -8 -6 -5 -6 6 -1 11 2 17 5 13 3 -3 4 -12 1 -19z m0
-80 c-3 -7 -5 -2 -5 12 0 14 2 19 5 13 2 -7 2 -19 0 -25z m0 -205 c-2 -32 -3
-8 -3 52 0 61 1 87 3 58 2 -29 2 -78 0 -110z m4771 -1055 l2 -697 -250 -3
-250 -3 0 684 c0 626 1 686 17 703 15 17 34 18 247 16 l231 -3 3 -697z m-2291
549 c2 -2 5 -1187 4 -1214 -1 -10 -61 -13 -266 -13 l-265 0 0 600 c0 558 1
601 18 618 15 15 39 17 262 14 135 -2 246 -4 247 -5z m1497 -183 c3 -9 6 -247
6 -530 l0 -514 -259 0 -258 0 -6 278 -5 277 252 252 c138 139 254 253 257 253
4 0 10 -7 13 -16z m-3130 -40 c14 -14 16 -75 16 -520 l0 -504 -240 0 -240 0 0
508 c0 382 3 511 12 520 9 9 73 12 224 12 180 0 215 -2 228 -16z m2300 -796
c12 -17 16 -48 16 -125 l0 -103 -190 0 -190 0 0 99 c0 55 4 111 10 125 l10 26
164 0 c159 0 165 -1 180 -22z m-1987 -220 c-3 -8 -6 -5 -6 6 -1 11 2 17 5 13
3 -3 4 -12 1 -19z m1328 -873 l0 -660 -28 -100 c-85 -308 -296 -569 -572 -707
-84 -43 -197 -82 -296 -104 -103 -23 -367 -23 -468 -1 -354 81 -641 302 -795
611 -90 183 -116 294 -123 544 l-6 192 276 0 275 0 4 -187 c6 -206 13 -240 80
-366 49 -92 165 -204 258 -249 102 -49 167 -62 291 -56 158 8 261 53 373 164
72 72 132 172 163 272 l28 87 3 612 3 611 267 -1 267 -2 0 -660z m1497 650
c11 -14 9 -1067 -2 -1260 -10 -187 -31 -278 -95 -410 -99 -206 -275 -376 -491
-476 -90 -42 -233 -82 -325 -93 l-56 -6 -6 113 c-4 61 -7 171 -7 244 l0 132
57 16 c131 38 217 101 292 212 90 135 93 159 91 748 0 270 2 558 6 640 l7 151
261 0 c168 0 264 -4 268 -11z"/>
</g>
</svg>
